<svg xmlns="http://www.w3.org/2000/svg" xmlns:xlink="http://www.w3.org/1999/xlink" width="500" zoomAndPan="magnify" viewBox="0 0 375 374.999991" height="500" preserveAspectRatio="xMidYMid meet" version="1.0"><defs><g/><clipPath id="94711a53ae"><path d="M 16.914062 12 L 362.664062 12 L 362.664062 369 L 16.914062 369 Z M 16.914062 12 " clip-rule="nonzero"/></clipPath></defs><rect x="-37.5" width="450" fill="#ffffff" y="-37.499999" height="449.999989" fill-opacity="1"/><rect x="-37.5" width="450" fill="#99a1af" y="-37.499999" height="449.999989" fill-opacity="1"/><g clip-path="url(#94711a53ae)"><path fill="#ffffff" d="M 146.261719 17.597656 C 192.894531 5.875 239.992188 13.738281 278.730469 36.101562 C 318.214844 58.898438 349 96.753906 361.734375 144.277344 C 362.011719 145.324219 362.28125 146.375 362.542969 147.421875 L 359.820312 148.375 C 359.542969 147.253906 359.257812 146.136719 358.957031 145.015625 C 346.429688 98.261719 316.140625 61.015625 277.292969 38.582031 C 238.648438 16.273438 191.539062 8.632812 145.027344 20.882812 C 145.464844 19.796875 145.871094 18.703125 146.261719 17.597656 Z M 19.636719 233 C 19.867188 233.917969 20.101562 234.828125 20.347656 235.746094 C 32.875 282.5 63.167969 319.75 102.011719 342.179688 C 140.835938 364.597656 188.210938 372.203125 234.945312 359.707031 C 234.492188 360.792969 234.066406 361.894531 233.664062 363.007812 C 186.828125 374.960938 139.480469 367.121094 100.578125 344.660156 C 61.09375 321.867188 30.304688 284.007812 17.574219 236.488281 C 17.351562 235.640625 17.128906 234.796875 16.914062 233.953125 Z M 19.636719 233 " fill-opacity="1" fill-rule="evenodd"/></g><g fill="#ffffff" fill-opacity="1"><g transform="translate(70.256427, 316.088061)"><g><path d="M -17.59375 -82.40625 C -18.132812 -82.664062 -18.535156 -83.128906 -18.796875 -83.796875 C -19.066406 -84.460938 -19.332031 -85.863281 -19.59375 -88 C -19.863281 -90.132812 -19.734375 -92.734375 -19.203125 -95.796875 C -18.671875 -98.867188 -17.867188 -101.070312 -16.796875 -102.40625 C -16.265625 -104 -16 -104.929688 -16 -105.203125 C -15.726562 -105.734375 -15.457031 -106.332031 -15.1875 -107 C -14.925781 -107.664062 -14.394531 -108.53125 -13.59375 -109.59375 C -12.53125 -110.925781 -11.53125 -112.394531 -10.59375 -114 C -9.664062 -115.601562 -9.203125 -116.535156 -9.203125 -116.796875 C -9.203125 -117.066406 -9.132812 -117.265625 -9 -117.390625 C -8.863281 -117.523438 -8.796875 -117.460938 -8.796875 -117.203125 C -8.265625 -117.203125 -8 -117.601562 -8 -118.40625 C -8 -118.9375 -7.734375 -119.203125 -7.203125 -119.203125 C -6.929688 -119.203125 -6.796875 -119.46875 -6.796875 -120 L -5.59375 -121.203125 C -5.0625 -121.203125 -4.664062 -121.601562 -4.40625 -122.40625 C -4.40625 -123.195312 -4.269531 -123.59375 -4 -123.59375 L -0.796875 -127.59375 C 1.066406 -130 2.132812 -131.203125 2.40625 -131.203125 C 2.664062 -131.203125 2.796875 -131.46875 2.796875 -132 C 2.796875 -132.269531 3.460938 -133.070312 4.796875 -134.40625 L 6.40625 -136.40625 C 6.40625 -136.9375 6.9375 -137.734375 8 -138.796875 L 7.203125 -138.796875 C 6.929688 -138.796875 6.394531 -139.195312 5.59375 -140 C 4.800781 -140.800781 4.40625 -141.332031 4.40625 -141.59375 C 4.40625 -142.394531 4.671875 -142.53125 5.203125 -142 C 5.734375 -141.726562 6.734375 -141.859375 8.203125 -142.390625 C 9.671875 -142.929688 10.40625 -143.332031 10.40625 -143.59375 C 10.40625 -143.59375 10.46875 -143.660156 10.59375 -143.796875 C 10.726562 -143.929688 10.929688 -143.863281 11.203125 -143.59375 C 11.203125 -143.59375 11.332031 -143.59375 11.59375 -143.59375 C 11.863281 -143.59375 12.132812 -143.726562 12.40625 -144 L 20.40625 -152 C 21.46875 -152.800781 23.796875 -154.929688 27.390625 -158.390625 C 30.992188 -161.859375 33.863281 -164.53125 36 -166.40625 C 41.332031 -170.9375 46.664062 -175.332031 52 -179.59375 C 57.332031 -183.863281 62.53125 -187.863281 67.59375 -191.59375 C 69.46875 -192.925781 71.46875 -194.257812 73.59375 -195.59375 C 75.726562 -196.925781 77.726562 -198.128906 79.59375 -199.203125 C 81.195312 -200.535156 83.332031 -201.929688 86 -203.390625 C 88.664062 -204.859375 91.066406 -205.863281 93.203125 -206.40625 C 95.335938 -207.195312 97.003906 -207.257812 98.203125 -206.59375 C 99.398438 -205.925781 99.734375 -204.796875 99.203125 -203.203125 C 98.929688 -202.128906 97.460938 -200.191406 94.796875 -197.390625 C 92.128906 -194.597656 89.257812 -191.867188 86.1875 -189.203125 C 83.125 -186.535156 80.53125 -184.398438 78.40625 -182.796875 L 68.40625 -174.796875 L 63.203125 -170.796875 L 58.796875 -167.59375 L 54.796875 -164.796875 C 54.265625 -164.535156 52.53125 -163.46875 49.59375 -161.59375 C 46.664062 -159.726562 44.535156 -158.265625 43.203125 -157.203125 C 42.128906 -156.128906 40.789062 -155.125 39.1875 -154.1875 C 37.59375 -153.257812 36.664062 -152.796875 36.40625 -152.796875 L 32.796875 -150.40625 C 31.203125 -149.332031 30.003906 -148.53125 29.203125 -148 C 28.398438 -147.46875 27.066406 -146.664062 25.203125 -145.59375 L 18 -140.796875 C 16.9375 -140.265625 16.132812 -139.734375 15.59375 -139.203125 C 15.59375 -138.929688 15.328125 -138.53125 14.796875 -138 C 14.535156 -138 13.003906 -136.195312 10.203125 -132.59375 C 7.398438 -129 4.332031 -125 1 -120.59375 C -2.332031 -116.195312 -4.929688 -112.664062 -6.796875 -110 C -12.128906 -102 -15.195312 -94.929688 -16 -88.796875 C -16.800781 -84.535156 -17.332031 -82.40625 -17.59375 -82.40625 Z M 26 -150 L 33.59375 -154.40625 L 35.203125 -155.59375 C 36.003906 -156.132812 37.671875 -157.269531 40.203125 -159 C 42.734375 -160.726562 44.53125 -162.128906 45.59375 -163.203125 C 46.394531 -163.734375 47.726562 -164.664062 49.59375 -166 C 51.46875 -167.332031 52.800781 -168.132812 53.59375 -168.40625 C 54.394531 -168.9375 56.53125 -170.46875 60 -173 C 63.46875 -175.53125 66 -177.460938 67.59375 -178.796875 L 70 -180.40625 C 70.269531 -180.40625 72.269531 -182.003906 76 -185.203125 L 83.59375 -191.203125 L 89.203125 -196.40625 L 90.40625 -197.59375 L 91.203125 -198.796875 L 91.59375 -199.203125 L 92.796875 -200 L 92.796875 -200.40625 L 93.59375 -201.203125 C 93.863281 -201.460938 94 -201.660156 94 -201.796875 C 94 -201.929688 94 -202 94 -202 C 94 -203.0625 93.734375 -203.328125 93.203125 -202.796875 C 92.398438 -202.796875 91.863281 -202.664062 91.59375 -202.40625 L 90.796875 -202 L 88.796875 -200.796875 L 86 -199.203125 L 79.59375 -195.203125 L 77.203125 -193.59375 L 74 -190.796875 L 68 -186.796875 L 53.59375 -175.203125 C 53.332031 -175.203125 51.398438 -173.664062 47.796875 -170.59375 C 44.203125 -167.53125 40.46875 -164.265625 36.59375 -160.796875 C 32.726562 -157.328125 30.128906 -154.925781 28.796875 -153.59375 C 27.203125 -151.726562 26.203125 -150.59375 25.796875 -150.1875 C 25.398438 -149.789062 25.46875 -149.726562 26 -150 Z M 26 -150 "/></g></g></g><g fill="#ffffff" fill-opacity="1"><g transform="translate(112.256115, 316.088061)"><g><path d="M -4.796875 -108.796875 C -6.398438 -108.535156 -7.398438 -108.46875 -7.796875 -108.59375 C -8.203125 -108.726562 -8.671875 -109.195312 -9.203125 -110 C -10.265625 -111.601562 -10.0625 -113.867188 -8.59375 -116.796875 C -7.132812 -119.734375 -6.132812 -121.46875 -5.59375 -122 L 1.203125 -128.796875 L 4.40625 -130 L 5.203125 -129.59375 L 10.40625 -129.203125 C 11.738281 -129.203125 12.671875 -128.664062 13.203125 -127.59375 C 13.460938 -127.332031 13.59375 -126.800781 13.59375 -126 L 13.59375 -122.40625 C 14.664062 -122.132812 15.734375 -121.734375 16.796875 -121.203125 C 19.203125 -120.398438 22.132812 -120 25.59375 -120 C 32.53125 -120 38.332031 -120.664062 43 -122 C 47.664062 -123.332031 51.863281 -124.800781 55.59375 -126.40625 C 56.394531 -127.195312 57.0625 -127.0625 57.59375 -126 C 58.132812 -125.195312 57.867188 -124.53125 56.796875 -124 L 53.203125 -122.40625 C 48.929688 -120.53125 44.128906 -119.191406 38.796875 -118.390625 C 33.460938 -117.597656 29.332031 -117.203125 26.40625 -117.203125 C 21.070312 -117.203125 16.40625 -117.601562 12.40625 -118.40625 L 11.203125 -118 C 10.128906 -116.394531 7.925781 -114.457031 4.59375 -112.1875 C 1.257812 -109.925781 -1.867188 -108.796875 -4.796875 -108.796875 Z M 8 -124.40625 C 8.53125 -124.132812 8.796875 -124.265625 8.796875 -124.796875 C 8.535156 -124.796875 8.335938 -124.863281 8.203125 -125 C 8.066406 -125.132812 7.863281 -125.203125 7.59375 -125.203125 C 6.800781 -125.203125 6.9375 -124.9375 8 -124.40625 Z M -3.59375 -112.40625 C -3.332031 -112.40625 -2.535156 -112.46875 -1.203125 -112.59375 C 0.128906 -112.726562 1.726562 -113.597656 3.59375 -115.203125 C 6.257812 -117.335938 7.523438 -118.671875 7.390625 -119.203125 C 7.265625 -119.734375 7.066406 -120.132812 6.796875 -120.40625 L 4.40625 -121.59375 L 2.796875 -122.796875 C 2.265625 -122.796875 1.664062 -122.59375 1 -122.1875 C 0.332031 -121.789062 -0.664062 -120.796875 -2 -119.203125 C -3.863281 -116.796875 -4.660156 -115.0625 -4.390625 -114 C -4.128906 -112.9375 -3.863281 -112.40625 -3.59375 -112.40625 Z M -3.59375 -112.40625 "/></g></g></g><g fill="#ffffff" fill-opacity="1"><g transform="translate(175.05569, 316.088061)"><g><path d="M -133.59375 10 C -136.800781 10.269531 -138.269531 8.800781 -138 5.59375 L -137.59375 2.796875 C -136.257812 1.203125 -135.460938 -0.53125 -135.203125 -2.40625 C -134.671875 -2.9375 -133.867188 -4 -132.796875 -5.59375 L -132.40625 -5.59375 C -131.863281 -6.132812 -131.59375 -6.671875 -131.59375 -7.203125 C -131.332031 -8.003906 -129.734375 -10.132812 -126.796875 -13.59375 C -123.867188 -17.0625 -120.46875 -20.726562 -116.59375 -24.59375 C -112.726562 -28.46875 -109.460938 -31.335938 -106.796875 -33.203125 C -104.128906 -35.335938 -101.257812 -37.535156 -98.1875 -39.796875 C -95.125 -42.066406 -93.0625 -43.46875 -92 -44 L -86 -47.59375 C -82.53125 -50 -80.128906 -51.46875 -78.796875 -52 C -77.203125 -52.53125 -76.40625 -53.0625 -76.40625 -53.59375 C -76.40625 -53.59375 -76.335938 -53.660156 -76.203125 -53.796875 C -76.066406 -53.929688 -75.863281 -54 -75.59375 -54 C -74.800781 -54 -73.203125 -54.800781 -70.796875 -56.40625 C -68.929688 -57.46875 -65.734375 -59.066406 -61.203125 -61.203125 C -56.671875 -63.335938 -52.46875 -65.335938 -48.59375 -67.203125 C -44.726562 -69.066406 -42.664062 -69.863281 -42.40625 -69.59375 C -42.132812 -69.59375 -41.734375 -69.726562 -41.203125 -70 C -40.671875 -70.269531 -40.132812 -70.535156 -39.59375 -70.796875 C -39.0625 -71.328125 -38.328125 -71.726562 -37.390625 -72 C -36.460938 -72.269531 -35.597656 -72.535156 -34.796875 -72.796875 C -33.460938 -73.328125 -31.863281 -74.191406 -30 -75.390625 C -28.132812 -76.597656 -25.867188 -79.066406 -23.203125 -82.796875 C -21.597656 -84.929688 -19.0625 -88 -15.59375 -92 C -12.132812 -96 -8.671875 -100.128906 -5.203125 -104.390625 C -1.734375 -108.660156 1.128906 -112.195312 3.390625 -115 C 5.660156 -117.800781 6.53125 -119.066406 6 -118.796875 L -3.59375 -114.796875 C -4.132812 -114.535156 -5.40625 -114.46875 -7.40625 -114.59375 C -9.40625 -114.726562 -10.671875 -114.929688 -11.203125 -115.203125 C -11.734375 -115.734375 -12 -116.597656 -12 -117.796875 C -12 -118.992188 -11.597656 -119.863281 -10.796875 -120.40625 L -9.203125 -122 C -8.671875 -122.269531 -8.269531 -122.40625 -8 -122.40625 C -7.726562 -122.40625 -7.460938 -122.535156 -7.203125 -122.796875 L -3.59375 -125.59375 C -2.257812 -126.394531 -0.394531 -127.460938 2 -128.796875 C 4.394531 -130.128906 6.257812 -130.929688 7.59375 -131.203125 C 13.46875 -133.066406 16.40625 -132.132812 16.40625 -128.40625 C 16.40625 -127.863281 16.46875 -127.394531 16.59375 -127 C 16.726562 -126.601562 16.796875 -126.269531 16.796875 -126 C 16.796875 -125.46875 16.128906 -124.269531 14.796875 -122.40625 L 10.40625 -115.59375 L 5.203125 -108.796875 C 4.398438 -107.992188 2.664062 -105.992188 0 -102.796875 C -2.664062 -99.597656 -5.664062 -96.128906 -9 -92.390625 C -12.332031 -88.660156 -15.066406 -85.460938 -17.203125 -82.796875 C -19.335938 -80.128906 -20.269531 -78.929688 -20 -79.203125 L -15.59375 -80.796875 L -10.40625 -82 L -1.203125 -85.203125 C 4.128906 -87.066406 8.726562 -88.53125 12.59375 -89.59375 C 16.46875 -90.664062 20.40625 -91.734375 24.40625 -92.796875 L 46.796875 -98.40625 L 55.59375 -100.40625 C 57.726562 -100.9375 60.0625 -101.332031 62.59375 -101.59375 C 65.132812 -101.863281 66.9375 -101.863281 68 -101.59375 C 70.132812 -101.0625 70.664062 -100 69.59375 -98.40625 C 68.800781 -97.601562 68.269531 -97.203125 68 -97.203125 L 64.40625 -95.59375 C 62.53125 -94.800781 61.0625 -94.535156 60 -94.796875 C 58.394531 -95.328125 58.128906 -96.128906 59.203125 -97.203125 C 59.734375 -97.734375 59.734375 -98.066406 59.203125 -98.203125 C 58.671875 -98.335938 57.203125 -98.132812 54.796875 -97.59375 C 53.203125 -97.332031 51.601562 -97.066406 50 -96.796875 C 48.394531 -96.535156 47.195312 -96.269531 46.40625 -96 L 9.59375 -86.40625 C 8.53125 -86.132812 7.597656 -85.863281 6.796875 -85.59375 C 5.992188 -85.332031 5.460938 -85.203125 5.203125 -85.203125 C 4.671875 -84.671875 3.738281 -84.40625 2.40625 -84.40625 C 2.132812 -84.132812 1.664062 -83.929688 1 -83.796875 C 0.332031 -83.660156 -0.132812 -83.460938 -0.40625 -83.203125 C -1.46875 -82.671875 -2.132812 -82.535156 -2.40625 -82.796875 C -2.9375 -82.796875 -3.332031 -82.664062 -3.59375 -82.40625 C -4.394531 -81.601562 -5.460938 -81.066406 -6.796875 -80.796875 C -10.535156 -79.734375 -14.40625 -78.265625 -18.40625 -76.390625 C -22.40625 -74.523438 -24.671875 -73.195312 -25.203125 -72.40625 C -25.460938 -72.132812 -26.328125 -71.332031 -27.796875 -70 C -29.265625 -68.664062 -30.800781 -66.929688 -32.40625 -64.796875 C -35.601562 -61.066406 -40.203125 -56.265625 -46.203125 -50.390625 C -52.203125 -44.523438 -57.332031 -39.863281 -61.59375 -36.40625 L -80.40625 -21.203125 L -97.203125 -8.40625 L -106.40625 -2 L -110.40625 0.40625 L -116 3.59375 C -118.9375 5.195312 -122.070312 6.597656 -125.40625 7.796875 C -128.738281 8.992188 -131.46875 9.726562 -133.59375 10 Z M -6.40625 -118 C -5.070312 -118 -3.003906 -118.53125 -0.203125 -119.59375 C 2.597656 -120.664062 5.195312 -121.929688 7.59375 -123.390625 C 10 -124.859375 11.203125 -125.863281 11.203125 -126.40625 C 11.203125 -126.9375 10.398438 -127.132812 8.796875 -127 C 7.203125 -126.863281 5.601562 -126.394531 4 -125.59375 C 2.132812 -124.800781 0.132812 -123.738281 -2 -122.40625 C -4.132812 -121.070312 -5.601562 -120.003906 -6.40625 -119.203125 C -7.195312 -118.398438 -7.195312 -118 -6.40625 -118 Z M -134.40625 6.796875 L -128.796875 5.203125 C -126.128906 4.128906 -123.59375 2.992188 -121.1875 1.796875 C -118.789062 0.597656 -115.992188 -1.066406 -112.796875 -3.203125 C -109.867188 -5.066406 -108.269531 -6 -108 -6 C -107.726562 -6 -107.328125 -6.265625 -106.796875 -6.796875 C -106.796875 -7.328125 -106.53125 -7.59375 -106 -7.59375 C -105.726562 -7.59375 -104.394531 -8.394531 -102 -10 C -99.601562 -11.601562 -97.070312 -13.335938 -94.40625 -15.203125 C -91.738281 -17.066406 -90.003906 -18.398438 -89.203125 -19.203125 L -86 -21.59375 C -84.394531 -22.664062 -82.796875 -24 -81.203125 -25.59375 L -69.59375 -36 C -60.800781 -44 -53.269531 -51.066406 -47 -57.203125 C -40.726562 -63.335938 -37.59375 -66.9375 -37.59375 -68 C -37.59375 -68 -37.523438 -68.066406 -37.390625 -68.203125 C -37.265625 -68.335938 -37.066406 -68.40625 -36.796875 -68.40625 C -36.796875 -68.40625 -36.726562 -68.46875 -36.59375 -68.59375 C -36.46875 -68.726562 -36.40625 -68.929688 -36.40625 -69.203125 C -36.40625 -69.734375 -36.601562 -69.929688 -37 -69.796875 C -37.394531 -69.660156 -38.660156 -69.195312 -40.796875 -68.40625 L -46 -66.40625 C -46.800781 -66.132812 -47.597656 -65.796875 -48.390625 -65.390625 C -49.191406 -64.992188 -49.59375 -64.664062 -49.59375 -64.40625 L -51.203125 -64 C -52.003906 -64 -52.535156 -63.863281 -52.796875 -63.59375 C -52.796875 -63.332031 -53.660156 -62.800781 -55.390625 -62 C -57.128906 -61.195312 -59.066406 -60.265625 -61.203125 -59.203125 C -63.597656 -58.128906 -65.925781 -56.925781 -68.1875 -55.59375 C -70.457031 -54.257812 -71.992188 -53.328125 -72.796875 -52.796875 L -76.40625 -50.796875 C -76.664062 -50.796875 -78.257812 -49.863281 -81.1875 -48 C -84.125 -46.132812 -87.257812 -44.132812 -90.59375 -42 C -93.925781 -39.863281 -96.394531 -38.265625 -98 -37.203125 C -102.269531 -33.734375 -105.335938 -31.265625 -107.203125 -29.796875 C -109.066406 -28.328125 -111.863281 -25.863281 -115.59375 -22.40625 C -119.59375 -18.40625 -122.789062 -14.800781 -125.1875 -11.59375 C -127.59375 -8.394531 -130.128906 -4.53125 -132.796875 0 C -134.660156 4.269531 -135.195312 6.535156 -134.40625 6.796875 Z M -134.40625 6.796875 "/></g></g></g><g fill="#ffffff" fill-opacity="1"><g transform="translate(227.855293, 316.088061)"><g><path d="M 16.796875 -137.59375 C 15.992188 -137.332031 15.191406 -137.597656 14.390625 -138.390625 C 13.597656 -139.191406 13.46875 -139.726562 14 -140 C 14.53125 -140.53125 14.796875 -141.332031 14.796875 -142.40625 C 15.328125 -145.070312 16.53125 -145.738281 18.40625 -144.40625 C 19.195312 -143.601562 19.59375 -142.9375 19.59375 -142.40625 C 19.863281 -141.601562 19.664062 -140.664062 19 -139.59375 C 18.332031 -138.53125 17.597656 -137.863281 16.796875 -137.59375 Z M -6 -108.796875 C -10 -108.535156 -12 -109.601562 -12 -112 L -12 -113.203125 C -12 -116.671875 -8.53125 -121.335938 -1.59375 -127.203125 C 1.863281 -129.597656 4.128906 -130.53125 5.203125 -130 C 7.066406 -129.195312 5.734375 -126.929688 1.203125 -123.203125 L -5.59375 -117.59375 C -6.664062 -116.257812 -7.203125 -114.660156 -7.203125 -112.796875 C -6.398438 -112.535156 -5.398438 -112.535156 -4.203125 -112.796875 C -3.003906 -113.066406 -2.40625 -113.203125 -2.40625 -113.203125 C 0.53125 -113.734375 4.929688 -115.195312 10.796875 -117.59375 C 16.660156 -120 23.992188 -123.066406 32.796875 -126.796875 L 33.59375 -127.203125 L 34.40625 -127.203125 L 35.203125 -126.796875 C 36.535156 -126.265625 36.398438 -125.46875 34.796875 -124.40625 L 30 -122.40625 L 12.40625 -114.40625 C 9.195312 -113.070312 5.859375 -111.867188 2.390625 -110.796875 C -1.066406 -109.734375 -3.863281 -109.066406 -6 -108.796875 Z M -6 -108.796875 "/></g></g></g><g fill="#ffffff" fill-opacity="1"><g transform="translate(268.255017, 316.088061)"><g><path d="M 23.59375 -107.203125 C 18.800781 -106.671875 15.335938 -107.335938 13.203125 -109.203125 C 12.398438 -109.734375 11.863281 -110.929688 11.59375 -112.796875 C 11.332031 -114.660156 11.46875 -116.128906 12 -117.203125 L 12.796875 -118.40625 L 12.796875 -118.796875 L 13.59375 -120.40625 L 13.203125 -120.40625 C 11.335938 -119.332031 8.003906 -117.53125 3.203125 -115 C -1.597656 -112.46875 -4.929688 -110.535156 -6.796875 -109.203125 C -8.660156 -108.671875 -9.59375 -108.40625 -9.59375 -108.40625 C -10.394531 -108.40625 -10.992188 -108.738281 -11.390625 -109.40625 C -11.796875 -110.070312 -11.863281 -110.671875 -11.59375 -111.203125 L -11.59375 -112.40625 C -9.195312 -114.800781 -7.332031 -117.597656 -6 -120.796875 L -3.203125 -124.40625 C -0.796875 -127.863281 1.203125 -128.660156 2.796875 -126.796875 C 3.597656 -125.734375 3.597656 -124.398438 2.796875 -122.796875 L 0 -118.40625 L 12.796875 -124 C 13.597656 -124.53125 14.460938 -124.992188 15.390625 -125.390625 C 16.328125 -125.796875 16.929688 -126.132812 17.203125 -126.40625 C 20.128906 -128.53125 21.726562 -128.523438 22 -126.390625 C 22.269531 -124.265625 21.601562 -122.269531 20 -120.40625 C 17.332031 -117.738281 16.265625 -115.601562 16.796875 -114 C 16.796875 -109.46875 26.394531 -110.132812 45.59375 -116 C 47.726562 -116.53125 50.59375 -117.53125 54.1875 -119 C 57.789062 -120.46875 61.0625 -121.734375 64 -122.796875 C 68.269531 -124.660156 71.269531 -125.859375 73 -126.390625 C 74.726562 -126.929688 75.726562 -127.066406 76 -126.796875 C 77.332031 -126.265625 77.597656 -125.734375 76.796875 -125.203125 C 75.992188 -124.671875 74.53125 -124.003906 72.40625 -123.203125 C 70.800781 -122.671875 69.664062 -122.269531 69 -122 C 68.332031 -121.726562 67.195312 -121.195312 65.59375 -120.40625 L 63.203125 -119.203125 L 58.796875 -117.203125 L 53.203125 -114.796875 C 53.203125 -114.796875 50.597656 -113.925781 45.390625 -112.1875 C 40.191406 -110.457031 35.726562 -109.195312 32 -108.40625 Z M 23.59375 -107.203125 "/></g></g></g><g fill="#ffffff" fill-opacity="1"><g transform="translate(181.267655, 248.756542)"><g><path d="M 6.109375 -8.3125 L 6.109375 -6.734375 L 4.09375 -6.734375 L 4.09375 0 L 2.453125 0 L 2.453125 -6.734375 L 0.515625 -6.734375 L 0.515625 -8.3125 Z M 6.109375 -8.3125 "/></g></g></g><g fill="#ffffff" fill-opacity="1"><g transform="translate(192.411522, 248.756542)"><g><path d="M 0.5625 -4.140625 C 0.5625 -4.898438 0.75 -5.601562 1.125 -6.25 C 1.507812 -6.90625 2.023438 -7.425781 2.671875 -7.8125 C 3.328125 -8.207031 4.035156 -8.40625 4.796875 -8.40625 C 5.554688 -8.40625 6.257812 -8.207031 6.90625 -7.8125 C 7.5625 -7.425781 8.082031 -6.90625 8.46875 -6.25 C 8.863281 -5.601562 9.0625 -4.898438 9.0625 -4.140625 C 9.0625 -3.378906 8.863281 -2.671875 8.46875 -2.015625 C 8.082031 -1.367188 7.5625 -0.851562 6.90625 -0.46875 C 6.257812 -0.09375 5.554688 0.09375 4.796875 0.09375 C 4.035156 0.09375 3.328125 -0.09375 2.671875 -0.46875 C 2.023438 -0.851562 1.507812 -1.367188 1.125 -2.015625 C 0.75 -2.671875 0.5625 -3.378906 0.5625 -4.140625 Z M 2.265625 -4.140625 C 2.265625 -3.660156 2.378906 -3.21875 2.609375 -2.8125 C 2.835938 -2.40625 3.148438 -2.082031 3.546875 -1.84375 C 3.941406 -1.601562 4.378906 -1.484375 4.859375 -1.484375 C 5.328125 -1.484375 5.75 -1.601562 6.125 -1.84375 C 6.507812 -2.082031 6.8125 -2.398438 7.03125 -2.796875 C 7.25 -3.203125 7.359375 -3.648438 7.359375 -4.140625 C 7.359375 -4.640625 7.242188 -5.09375 7.015625 -5.5 C 6.796875 -5.90625 6.492188 -6.226562 6.109375 -6.46875 C 5.722656 -6.707031 5.289062 -6.828125 4.8125 -6.828125 C 4.332031 -6.828125 3.898438 -6.707031 3.515625 -6.46875 C 3.128906 -6.226562 2.820312 -5.90625 2.59375 -5.5 C 2.375 -5.09375 2.265625 -4.640625 2.265625 -4.140625 Z M 2.265625 -4.140625 "/></g></g></g><g fill="#ffffff" fill-opacity="1"><g transform="translate(206.560378, 248.756542)"><g/></g></g><g fill="#ffffff" fill-opacity="1"><g transform="translate(214.755755, 248.756542)"><g><path d="M 2.6875 -4.9375 L 2.9375 -5.25 L 5.65625 -8.3125 L 7.765625 -8.3125 L 4.34375 -4.59375 L 7.78125 0 L 5.703125 0 L 3.140625 -3.546875 L 2.734375 -3.140625 L 2.734375 0 L 1.078125 0 L 1.078125 -8.3125 L 2.734375 -8.3125 L 2.734375 -5.359375 Z M 2.6875 -4.9375 "/></g></g></g><g fill="#ffffff" fill-opacity="1"><g transform="translate(227.232664, 248.756542)"><g><path d="M 8.5625 -8.3125 L 8.5625 0.34375 L 8.515625 0.34375 L 2.703125 -4.921875 L 2.734375 0 L 1.078125 0 L 1.078125 -8.640625 L 1.140625 -8.640625 L 6.953125 -3.3125 L 6.90625 -8.3125 Z M 8.5625 -8.3125 "/></g></g></g><g fill="#ffffff" fill-opacity="1"><g transform="translate(241.392815, 248.756542)"><g><path d="M 0.5625 -4.140625 C 0.5625 -4.898438 0.75 -5.601562 1.125 -6.25 C 1.507812 -6.90625 2.023438 -7.425781 2.671875 -7.8125 C 3.328125 -8.207031 4.035156 -8.40625 4.796875 -8.40625 C 5.554688 -8.40625 6.257812 -8.207031 6.90625 -7.8125 C 7.5625 -7.425781 8.082031 -6.90625 8.46875 -6.25 C 8.863281 -5.601562 9.0625 -4.898438 9.0625 -4.140625 C 9.0625 -3.378906 8.863281 -2.671875 8.46875 -2.015625 C 8.082031 -1.367188 7.5625 -0.851562 6.90625 -0.46875 C 6.257812 -0.09375 5.554688 0.09375 4.796875 0.09375 C 4.035156 0.09375 3.328125 -0.09375 2.671875 -0.46875 C 2.023438 -0.851562 1.507812 -1.367188 1.125 -2.015625 C 0.75 -2.671875 0.5625 -3.378906 0.5625 -4.140625 Z M 2.265625 -4.140625 C 2.265625 -3.660156 2.378906 -3.21875 2.609375 -2.8125 C 2.835938 -2.40625 3.148438 -2.082031 3.546875 -1.84375 C 3.941406 -1.601562 4.378906 -1.484375 4.859375 -1.484375 C 5.328125 -1.484375 5.75 -1.601562 6.125 -1.84375 C 6.507812 -2.082031 6.8125 -2.398438 7.03125 -2.796875 C 7.25 -3.203125 7.359375 -3.648438 7.359375 -4.140625 C 7.359375 -4.640625 7.242188 -5.09375 7.015625 -5.5 C 6.796875 -5.90625 6.492188 -6.226562 6.109375 -6.46875 C 5.722656 -6.707031 5.289062 -6.828125 4.8125 -6.828125 C 4.332031 -6.828125 3.898438 -6.707031 3.515625 -6.46875 C 3.128906 -6.226562 2.820312 -5.90625 2.59375 -5.5 C 2.375 -5.09375 2.265625 -4.640625 2.265625 -4.140625 Z M 2.265625 -4.140625 "/></g></g></g><g fill="#ffffff" fill-opacity="1"><g transform="translate(255.541671, 248.756542)"><g><path d="M 7.984375 0.359375 L 6.015625 -4.5625 L 3.703125 0.390625 L 0.359375 -8.265625 L 2.28125 -8.265625 L 3.921875 -3.453125 L 5.1875 -6.625 L 4.53125 -8.265625 L 6.15625 -8.265625 L 8.015625 -3.640625 L 9.4375 -8.265625 L 11.203125 -8.265625 Z M 7.984375 0.359375 "/></g></g></g><g fill="#ffffff" fill-opacity="1"><g transform="translate(271.622302, 248.756542)"><g/></g></g><g fill="#ffffff" fill-opacity="1"><g transform="translate(279.817679, 248.756542)"><g><path d="M 9.640625 -8.65625 L 9.640625 0 L 8 0 L 8 -3.96875 L 5.28125 -0.109375 L 5.265625 -0.109375 L 2.65625 -3.71875 L 2.65625 0 L 1.078125 0 L 1.078125 -8.65625 L 5.296875 -2.671875 L 9.609375 -8.65625 Z M 9.640625 -8.65625 "/></g></g></g><g fill="#ffffff" fill-opacity="1"><g transform="translate(295.051034, 248.756542)"><g><path d="M 0.5625 -4.140625 C 0.5625 -4.898438 0.75 -5.601562 1.125 -6.25 C 1.507812 -6.90625 2.023438 -7.425781 2.671875 -7.8125 C 3.328125 -8.207031 4.035156 -8.40625 4.796875 -8.40625 C 5.554688 -8.40625 6.257812 -8.207031 6.90625 -7.8125 C 7.5625 -7.425781 8.082031 -6.90625 8.46875 -6.25 C 8.863281 -5.601562 9.0625 -4.898438 9.0625 -4.140625 C 9.0625 -3.378906 8.863281 -2.671875 8.46875 -2.015625 C 8.082031 -1.367188 7.5625 -0.851562 6.90625 -0.46875 C 6.257812 -0.09375 5.554688 0.09375 4.796875 0.09375 C 4.035156 0.09375 3.328125 -0.09375 2.671875 -0.46875 C 2.023438 -0.851562 1.507812 -1.367188 1.125 -2.015625 C 0.75 -2.671875 0.5625 -3.378906 0.5625 -4.140625 Z M 2.265625 -4.140625 C 2.265625 -3.660156 2.378906 -3.21875 2.609375 -2.8125 C 2.835938 -2.40625 3.148438 -2.082031 3.546875 -1.84375 C 3.941406 -1.601562 4.378906 -1.484375 4.859375 -1.484375 C 5.328125 -1.484375 5.75 -1.601562 6.125 -1.84375 C 6.507812 -2.082031 6.8125 -2.398438 7.03125 -2.796875 C 7.25 -3.203125 7.359375 -3.648438 7.359375 -4.140625 C 7.359375 -4.640625 7.242188 -5.09375 7.015625 -5.5 C 6.796875 -5.90625 6.492188 -6.226562 6.109375 -6.46875 C 5.722656 -6.707031 5.289062 -6.828125 4.8125 -6.828125 C 4.332031 -6.828125 3.898438 -6.707031 3.515625 -6.46875 C 3.128906 -6.226562 2.820312 -5.90625 2.59375 -5.5 C 2.375 -5.09375 2.265625 -4.640625 2.265625 -4.140625 Z M 2.265625 -4.140625 "/></g></g></g><g fill="#ffffff" fill-opacity="1"><g transform="translate(309.19989, 248.756542)"><g><path d="M 5.5625 0 L 3.8125 -2.640625 L 2.71875 -2.640625 L 2.71875 0 L 1.078125 0 L 1.078125 -8.3125 L 3.59375 -8.3125 C 4.625 -8.3125 5.421875 -8.0625 5.984375 -7.5625 C 6.554688 -7.0625 6.84375 -6.378906 6.84375 -5.515625 C 6.84375 -5.003906 6.734375 -4.523438 6.515625 -4.078125 C 6.304688 -3.628906 5.976562 -3.273438 5.53125 -3.015625 L 7.46875 0 Z M 2.71875 -4.21875 L 3.875 -4.21875 C 4.320312 -4.21875 4.644531 -4.347656 4.84375 -4.609375 C 5.050781 -4.867188 5.15625 -5.148438 5.15625 -5.453125 C 5.15625 -5.753906 5.066406 -6.039062 4.890625 -6.3125 C 4.710938 -6.59375 4.378906 -6.734375 3.890625 -6.734375 L 2.71875 -6.734375 Z M 2.71875 -4.21875 "/></g></g></g><g fill="#ffffff" fill-opacity="1"><g transform="translate(321.473449, 248.756542)"><g><path d="M 6.75 -8.3125 L 6.75 -6.734375 L 2.71875 -6.734375 L 2.71875 -4.953125 L 6.28125 -4.953125 L 6.28125 -3.375 L 2.71875 -3.375 L 2.71875 -1.578125 L 6.90625 -1.578125 L 6.90625 0 L 1.078125 0 L 1.078125 -8.3125 Z M 6.75 -8.3125 "/></g></g></g></svg>